<svg width="21" height="21" viewBox="0 0 21 21" fill="none" xmlns="http://www.w3.org/2000/svg">
<path fill-rule="evenodd" clip-rule="evenodd" d="M20.58 10.7385C20.58 9.994 20.5132 9.27809 20.3891 8.59082H10.5V12.6524H16.1509C15.9075 13.9649 15.1677 15.077 14.0557 15.8215V18.456H17.4491C19.4345 16.6281 20.58 13.9363 20.58 10.7385Z" fill="#4285F4"/>
<path fill-rule="evenodd" clip-rule="evenodd" d="M10.5 21.0001C13.335 21.0001 15.7118 20.0599 17.4491 18.4563L14.0557 15.8217C13.1155 16.4517 11.9127 16.824 10.5 16.824C7.76523 16.824 5.45046 14.9769 4.62478 12.4951H1.11682V15.2156C2.84455 18.6472 6.39546 21.0001 10.5 21.0001Z" fill="#34A853"/>
<path fill-rule="evenodd" clip-rule="evenodd" d="M4.62477 12.4951C4.41477 11.8651 4.29545 11.1922 4.29545 10.5001C4.29545 9.80808 4.41477 9.13512 4.62477 8.50512V5.78467H1.11682C0.405682 7.20217 0 8.8058 0 10.5001C0 12.1944 0.405682 13.7981 1.11682 15.2156L4.62477 12.4951Z" fill="#FBBC05"/>
<path fill-rule="evenodd" clip-rule="evenodd" d="M10.5 4.17614C12.0416 4.17614 13.4257 4.70591 14.5139 5.74636L17.5255 2.73477C15.707 1.04045 13.3302 0 10.5 0C6.39546 0 2.84455 2.35295 1.11682 5.78455L4.62478 8.505C5.45046 6.02318 7.76523 4.17614 10.5 4.17614Z" fill="#EA4335"/>
</svg>
