<?xml version="1.0" standalone="no"?>
<!DOCTYPE svg PUBLIC "-//W3C//DTD SVG 20010904//EN"
 "http://www.w3.org/TR/2001/REC-SVG-20010904/DTD/svg10.dtd">
<svg version="1.0" xmlns="http://www.w3.org/2000/svg"
 width="260.000000pt" height="260.000000pt" viewBox="0 0 260.000000 260.000000"
 preserveAspectRatio="xMidYMid meet">
<metadata>
Created by potrace 1.14, written by Peter Selinger 2001-2017
</metadata>
<g transform="translate(0.000000,260.000000) scale(0.100000,-0.100000)"
fill="#000000" stroke="none">
<path d="M1150 2593 c-14 -2 -61 -11 -105 -20 -537 -105 -956 -548 -1033
-1093 -9 -62 -9 -282 0 -355 27 -219 129 -458 273 -635 211 -261 487 -420 829
-478 84 -14 348 -7 436 12 269 58 491 177 672 362 201 205 316 434 363 719 13
79 14 328 1 390 -40 196 -60 257 -132 401 -130 260 -371 484 -649 602 -75 32
-225 75 -304 88 -45 7 -317 13 -351 7z m126 -235 c-41 -339 -154 -623 -304
-766 -110 -105 -374 -213 -606 -248 -22 -3 -43 -7 -46 -9 -3 -1 -31 -6 -63 -9
l-59 -7 6 68 c37 424 304 783 695 936 83 32 161 54 231 63 25 4 46 7 47 8 1 0
25 2 53 4 l51 3 -5 -43z m262 16 c470 -109 817 -504 857 -977 l7 -79 -49 7
c-95 12 -119 17 -221 41 -312 73 -499 180 -605 347 -74 118 -152 332 -181 502
-3 17 -10 57 -15 90 -18 103 -22 98 67 90 42 -4 106 -13 140 -21z m-1169
-1118 c182 -33 324 -80 465 -154 137 -72 226 -168 299 -324 35 -75 99 -276
113 -353 22 -125 34 -200 34 -212 0 -12 -15 -13 -82 -8 -46 4 -86 8 -89 10 -3
2 -21 7 -40 10 -111 19 -267 86 -382 163 -277 187 -454 486 -482 816 l-7 78
43 -5 c24 -4 82 -13 128 -21z m2026 -48 c-2 -40 -15 -116 -29 -169 -102 -402
-400 -702 -801 -808 -96 -25 -245 -38 -245 -21 0 59 48 286 86 405 102 320
235 460 534 564 136 47 354 97 432 100 l28 1 -5 -72z"/>
</g>
</svg>
